<svg width="114" height="18" viewBox="0 0 114 18" fill="none" xmlns="http://www.w3.org/2000/svg">
<g id="cowboy-logo">
<path id="Vector" d="M8.81929 14.5084C7.15105 14.5084 5.7446 13.9599 4.62414 12.838C3.50367 11.7161 2.95589 10.3083 2.95589 8.61441C2.95589 6.91984 3.50367 5.51268 4.62414 4.39079C5.7446 3.26891 7.15105 2.69694 8.81929 2.69694C10.6547 2.69694 12.18 3.36495 13.3723 4.72515L15.3984 2.98292C13.6583 1.00237 11.465 0 8.81929 0C6.36423 0 4.2663 0.811002 2.55039 2.45791C0.857955 4.10339 0 6.15721 0 8.6137C0 11.0716 0.857955 13.124 2.55039 14.7702C4.2663 16.3929 6.36423 17.2046 8.81929 17.2046C11.4173 17.2046 13.8013 16.0827 15.4218 14.174L13.42 12.4311C12.2518 13.8155 10.7024 14.5077 8.81929 14.5077" fill="black"/>
<path id="Vector_2" d="M109.962 14.6847C109.962 14.5458 110.018 14.4127 110.116 14.3146C110.214 14.2166 110.348 14.1616 110.486 14.1618C110.625 14.162 110.758 14.2173 110.856 14.3157C110.955 14.414 111.01 14.5472 111.009 14.6861C111.009 14.8251 110.954 14.9583 110.855 15.0564C110.757 15.1545 110.624 15.2095 110.485 15.2093C110.346 15.2091 110.213 15.1538 110.114 15.0554C110.016 14.957 109.961 14.8236 109.961 14.6847H109.962ZM109.044 14.1412L107.694 14.5068C107.687 14.6249 107.688 14.7444 107.696 14.8654L109.044 15.2303C109.148 15.2588 109.203 15.3726 109.16 15.4708L108.605 16.752C108.694 16.8324 108.789 16.9064 108.887 16.9747L110.014 16.1495C110.035 16.1346 110.058 16.1242 110.083 16.1192C110.108 16.1141 110.133 16.1144 110.158 16.1201C110.183 16.1258 110.206 16.1366 110.226 16.152C110.246 16.1674 110.263 16.1869 110.274 16.2092L110.931 17.4399C110.99 17.4307 111.049 17.4222 111.109 17.4086C111.168 17.3958 111.224 17.3773 111.282 17.3603L111.339 15.9673C111.34 15.9421 111.346 15.9173 111.358 15.8947C111.369 15.8721 111.385 15.8523 111.405 15.8365C111.425 15.8207 111.448 15.8093 111.472 15.8032C111.497 15.7971 111.522 15.7963 111.547 15.8009L112.92 16.0556C112.979 15.951 113.033 15.8443 113.078 15.7333L112.021 14.8184C112.002 14.8019 111.986 14.7814 111.976 14.7584C111.965 14.7353 111.96 14.7103 111.96 14.685C111.96 14.6597 111.965 14.6347 111.976 14.6117C111.986 14.5887 112.002 14.5682 112.021 14.5516L113.077 13.6382C113.032 13.5272 112.981 13.4191 112.923 13.3145L111.547 13.5699C111.522 13.5745 111.497 13.5737 111.472 13.5676C111.448 13.5614 111.425 13.5501 111.405 13.5343C111.385 13.5185 111.369 13.4986 111.358 13.4761C111.346 13.4535 111.34 13.4287 111.339 13.4034L111.282 12.0091C111.167 11.9746 111.05 11.9475 110.932 11.928L110.275 13.1608C110.263 13.1833 110.247 13.2029 110.226 13.2183C110.206 13.2338 110.183 13.2447 110.158 13.2504C110.134 13.256 110.108 13.2563 110.083 13.2512C110.058 13.246 110.035 13.2356 110.014 13.2206L108.885 12.3947C108.787 12.463 108.693 12.5384 108.605 12.618L109.16 13.9C109.17 13.9232 109.175 13.9484 109.175 13.9737C109.174 13.999 109.168 14.0239 109.157 14.0467C109.146 14.0696 109.131 14.0897 109.111 14.1059C109.092 14.1221 109.069 14.1339 109.044 14.1405" fill="black"/>
<path id="Vector_3" d="M30.1955 12.8622C29.075 13.9834 27.6928 14.5561 26.048 14.5561C24.4032 14.5561 22.9968 13.9834 21.877 12.8622C20.7566 11.7403 20.2081 10.3325 20.2081 8.63788C20.2081 6.96822 20.7566 5.56034 21.877 4.41498C22.9968 3.26962 24.4032 2.69694 26.048 2.69694C27.6928 2.69694 29.075 3.26962 30.1955 4.41498C31.316 5.56034 31.8879 6.96822 31.8879 8.63788C31.8879 10.3083 31.316 11.7161 30.1948 12.8622H30.1955ZM26.0487 0C23.5937 0 21.5199 0.83519 19.8275 2.50557C18.1351 4.15176 17.2771 6.20488 17.2771 8.63788C17.2771 11.0723 18.1351 13.1247 19.8275 14.7709C21.5199 16.4171 23.5937 17.2523 26.0487 17.2523C28.5038 17.2523 30.6017 16.4171 32.2934 14.7709C33.9866 13.1247 34.8438 11.0716 34.8438 8.6386C34.8438 6.20417 33.9859 4.15176 32.27 2.50628C30.5775 0.834479 28.5038 0 26.0487 0Z" fill="black"/>
<path id="Vector_4" d="M52.684 11.7609L48.9655 0.460938H46.3696L42.6511 11.7609L38.6729 0.460938H35.5704L41.2901 16.8233H43.9757L47.6636 5.56883L51.3295 16.8233H54.0385L59.7582 0.460938H56.6629L52.684 11.7609ZM69.0392 14.1704H65.6394V9.52282H69.015C70.5694 9.52282 71.6864 10.5081 71.6864 11.8228C71.6864 13.1609 70.5694 14.1704 69.0399 14.1704H69.0392ZM65.6394 3.11448H68.3356C69.5977 3.11448 70.4969 3.93615 70.4969 5.03954C70.4969 6.23684 69.5977 7.05851 68.3107 7.05851H65.6394V3.11448ZM71.2979 7.92714C72.6581 7.43413 73.4592 6.21336 73.4592 4.64044C73.4592 3.44315 72.9982 2.43366 72.0748 1.65966C71.1763 0.859324 70.0594 0.460938 68.7241 0.460938H62.6038V16.8233H69.5493C71.0311 16.8233 72.2455 16.3772 73.2166 15.4616C74.2126 14.5461 74.6977 13.3722 74.6977 11.9871C74.6977 9.89773 73.4592 8.30205 71.2972 7.92643L71.2979 7.92714Z" fill="black"/>
<path id="Vector_5" d="M89.8967 12.8622C88.7763 13.9834 87.394 14.5561 85.7492 14.5561C84.1045 14.5561 82.698 13.9834 81.5783 12.8622C80.4578 11.7403 79.9093 10.3325 79.9093 8.63788C79.9093 6.96822 80.4578 5.56034 81.5783 4.41498C82.698 3.26962 84.1045 2.69694 85.7492 2.69694C87.394 2.69694 88.7763 3.26962 89.8967 4.41498C91.0172 5.56034 91.5892 6.96822 91.5892 8.63788C91.5892 10.3083 91.0172 11.7161 89.896 12.8622H89.8967ZM85.7499 0C83.2942 0 81.2211 0.83519 79.528 2.50557C77.8356 4.15176 76.9776 6.20488 76.9776 8.63788C76.9776 11.0723 77.8356 13.1247 79.528 14.7709C81.2204 16.4171 83.2942 17.2523 85.7492 17.2523C88.2043 17.2523 90.3022 16.4171 91.9947 14.7709C93.6871 13.1247 94.545 11.0716 94.545 8.6386C94.545 6.20417 93.6871 4.15176 91.9698 2.50628C90.278 0.834479 88.2043 0 85.7492 0" fill="black"/>
<path id="Vector_6" d="M107.645 0.460938L102.781 8.52827L97.8968 0.460938H94.6158L101.111 11.1213L97.672 16.8233H101.011L104.307 11.4123L110.978 0.460938H107.645Z" fill="black"/>
</g>
</svg>
