<svg width="96" height="21" viewBox="0 0 96 21" fill="none" xmlns="http://www.w3.org/2000/svg">
<g id="g10">
<g id="g12">
<path id="path14" d="M0.333008 15.3952C0.333008 16.3926 1.14355 17.2031 2.20328 17.2031H9.68373L9.68373 15.3328L2.20328 15.3328V13.4629L9.55899 13.4629C10.5563 13.4629 11.5537 12.6523 11.5537 11.655V11.7174V8.03921C11.5537 7.04186 10.6188 6.04443 9.55899 6.04443L2.20328 6.04443C1.20562 6.04443 0.333008 7.04186 0.333008 8.03921L0.333008 15.3952ZM9.68373 11.5926L2.20328 11.5926V7.85231L9.68373 7.85231V11.5926ZM34.6808 5.98234L27.2627 5.98234C26.2654 5.98234 25.268 6.97978 25.268 7.97713L25.268 15.3952V15.3328C25.268 16.3302 26.2654 17.2031 27.2627 17.2031L34.6184 17.2031V19.0731L27.138 19.0731V20.9434L34.6808 20.9434C35.6782 20.9434 36.4887 20.0704 36.4887 19.0731V7.97713C36.4887 6.97978 35.6782 5.98234 34.6808 5.98234ZM34.6184 15.3328L27.138 15.3328L27.138 7.85231L34.6184 7.85231V15.3328ZM20.2809 5.98234L14.7331 5.98234C13.7356 5.98234 12.8004 6.97978 12.8004 7.97713L12.8004 17.2031H14.6707L14.6707 7.85231L20.2809 7.85231C21.2782 7.85231 22.1511 8.78733 22.1511 9.84709L22.1511 17.2031H24.021L24.021 9.84709C24.021 7.78998 22.338 5.98234 20.2809 5.98234ZM47.0861 15.3328H39.6057V9.78468C39.6057 8.78733 40.603 7.78998 41.6628 7.78998H47.0861V17.1407H48.9561V7.97713C48.9561 6.97978 48.208 5.98234 47.2106 5.98234H41.6628C39.6057 5.98234 37.7354 7.78998 37.7354 9.84709V15.3952C37.7354 16.3926 38.7952 17.2031 39.7925 17.2031H43.0342C44.7174 17.2031 46.4628 16.5174 47.0861 15.3328V17.2031V15.3328ZM89.4755 0.37188H87.6056V17.2031H89.4755V7.85231L95.086 7.85231V5.98234L89.4755 5.98234V0.37188ZM63.2937 15.3952C63.2937 16.3926 63.8546 17.2031 64.8524 17.2031H72.0211V19.0731H65.164V20.9434H72.2704C73.2678 20.9434 73.8911 20.0704 73.8911 19.0107V19.0731V7.97713C73.8911 6.97978 73.2678 5.98234 72.2704 5.98234L64.8524 5.98234C63.8546 5.98234 63.2937 6.97978 63.2937 7.97713V15.3952ZM72.0211 15.3328H65.164V7.85231H72.0211V15.3328ZM59.5535 5.98234H52.3223C51.3249 5.98234 50.2031 6.97978 50.2031 7.97713V15.3952V15.3328C50.2031 16.3302 51.3249 17.2031 52.3223 17.2031L61.4238 17.2031V0.37188H59.5535V5.98234ZM59.5535 15.3328L52.073 15.3328V7.85231H59.5535V15.3328ZM75.1378 15.3952C75.1378 16.3926 76.1975 17.2031 77.1949 17.2031H84.4883V15.3328L77.008 15.3328V13.4629L84.6135 13.4629C85.6106 13.4629 86.3582 12.6523 86.3582 11.655V11.7174V8.03921C86.3582 7.04186 85.6106 6.04443 84.6135 6.04443L77.1949 6.04443C76.1975 6.04443 75.1378 7.04186 75.1378 8.03921V15.3952ZM84.4883 11.5926L77.008 11.5926V7.85231L84.4883 7.85231V11.5926Z" fill="black"/>
</g>
</g>
</svg>
