<svg width="96" height="31" viewBox="0 0 96 31" fill="none" xmlns="http://www.w3.org/2000/svg">
<g id="theguardian-logo">
<path id="Vector" d="M21.9332 16.5227C22.2528 16.3629 22.6044 16.1711 22.924 16.0113C23.0518 15.9474 23.4992 15.7876 23.5631 15.6598C23.5951 15.5959 23.5631 15.4041 23.5631 15.3082V14.5412L23.5631 9.07628V3.73916V3.03607C23.5631 3.00411 23.5951 2.7804 23.5631 2.74844C23.5312 2.71648 23.2755 2.74844 23.2436 2.74844H22.5405C22.2848 2.74844 22.3167 2.7804 22.157 2.97215C21.5497 3.77112 20.9425 4.57009 20.3353 5.40102C20.0477 5.78452 19.76 6.13607 19.5044 6.51958C19.3126 6.77525 19.3126 6.80721 18.9611 6.80721L19.057 4.69793C19.0889 4.18659 19.0889 3.67525 19.1209 3.16391C19.1209 2.97215 19.1528 2.7804 19.1528 2.58865C19.1528 2.52473 19.1209 2.33298 19.1528 2.30102C19.2167 2.20514 19.792 2.26906 19.9518 2.26906L31.9044 2.26906C31.9683 2.26906 32.2559 2.2371 32.3198 2.26906C32.3838 2.30102 32.3518 2.49277 32.3518 2.58865C32.3838 3.00411 32.3838 3.45154 32.4157 3.867C32.4477 4.7938 32.4796 5.68865 32.5436 6.61545V6.80721C32.3838 6.80721 32.2559 6.83916 32.1281 6.74329C32.0003 6.64741 31.9044 6.45566 31.8085 6.32782C31.425 5.81648 31.0415 5.27318 30.626 4.76184L29.4755 3.22782C29.4116 3.13195 29.3157 2.90824 29.1879 2.84432C29.092 2.7804 28.9003 2.81236 28.7724 2.81236H28.2611C28.1972 2.81236 27.9415 2.7804 27.8776 2.81236C27.8456 2.84432 27.8776 2.84432 27.8456 2.90824C27.7817 3.16391 27.8456 3.48349 27.8456 3.73916L27.8456 14.8608C27.8456 15.0845 27.7817 15.4041 27.8456 15.6278C27.9095 15.8515 28.4209 16.0113 28.6446 16.1072C28.8683 16.235 29.2518 16.3309 29.4436 16.5227C29.5075 16.5866 29.5714 16.9062 29.5075 17.0021C29.4755 17.034 29.3157 17.0021 29.2838 17.0021H22.2528C22.1889 17.0021 21.9652 17.034 21.9332 17.0021C21.9013 16.8742 21.9332 16.6185 21.9332 16.5227ZM33.7899 15.9474V11.2814V3.64329V2.3969C33.7899 2.20514 33.8539 1.91751 33.7899 1.72576C33.726 1.50205 33.3425 1.47009 33.1188 1.37422C32.991 1.34226 32.5755 1.24638 32.5116 1.11855V0.862876H32.6075C32.7353 0.798958 32.991 0.798958 33.1508 0.766999C33.4384 0.703082 33.726 0.671123 33.9817 0.607206C34.6209 0.47937 35.292 0.351535 35.9312 0.255659C36.3147 0.191742 36.6982 0.0958654 37.0817 0.0319478C37.1776 0.0319478 37.5611 -0.0319697 37.593 0.0319478C37.625 0.0639066 37.593 0.191742 37.593 0.2237V6.83916C38.8075 5.62473 40.9168 4.9536 42.6106 5.36906C44.0807 5.72061 44.56 7.09483 44.56 8.50102C44.592 10.2907 44.56 12.0484 44.56 13.8381V15.2763C44.56 15.4361 44.4961 15.8196 44.56 15.9794C44.592 16.0433 44.7198 16.0752 44.7838 16.1392C45.0075 16.267 45.2631 16.3948 45.4869 16.5227C45.5188 16.5546 45.6147 16.5866 45.6147 16.6185C45.6466 16.6505 45.6466 16.9381 45.6147 16.9701C45.5827 17.034 45.5827 17.0021 45.4869 17.0021C45.1353 17.066 44.7518 17.0021 44.4322 17.0021H39.8302C39.7982 17.0021 39.6384 17.034 39.6064 17.0021C39.5745 16.9701 39.5745 16.6185 39.6064 16.5866C39.7023 16.4588 40.0858 16.3309 40.2137 16.235C40.3095 16.1711 40.5972 16.0752 40.6611 15.9794C40.725 15.8835 40.6611 15.5319 40.6611 15.4361V14.1258C40.6611 12.2722 40.693 10.3866 40.6611 8.53298C40.6611 7.98968 40.5652 7.3505 40.0219 7.06288C39.7343 6.90308 39.3508 6.87112 39.0312 6.87112C38.7755 6.87112 38.5198 6.93504 38.2961 6.99896C38.1044 7.06288 37.7528 7.19071 37.625 7.3505C37.5291 7.47834 37.593 7.67009 37.593 7.82989V15.3722C37.593 15.5319 37.5291 15.8515 37.593 15.9794C37.625 16.0433 37.7528 16.1072 37.8487 16.1392C38.0724 16.267 38.36 16.3948 38.5838 16.5227C38.6157 16.5546 38.6796 16.5546 38.6796 16.5866C38.7116 16.6185 38.7116 16.9062 38.6796 16.9381C38.6477 16.9701 38.6157 16.9701 38.5518 16.9701C38.2003 17.0021 37.8167 16.9701 37.4652 16.9701L32.8631 16.9701C32.8312 16.9701 32.6714 17.0021 32.6394 16.9701C32.6075 16.9381 32.6394 16.6185 32.6714 16.5546C32.7673 16.4268 33.1188 16.299 33.2466 16.235C33.4704 16.1392 33.6301 16.0433 33.7899 15.9474ZM48.9704 11.5371C49.0343 12.9433 49.4817 14.5093 50.7601 15.2763C51.4312 15.6598 52.2621 15.7876 53.0291 15.7237C53.9559 15.6278 54.7229 15.1804 55.5219 14.7649C55.5219 14.8928 55.5539 15.1165 55.5219 15.2443C55.458 15.3722 55.2982 15.5319 55.2023 15.6278C55.0745 15.7557 54.9147 15.9155 54.7549 16.0433C54.2116 16.4907 53.6044 16.8103 52.9652 17.034C51.7508 17.4495 50.3446 17.4175 49.0982 17.0979C48.1075 16.8423 47.2126 16.3629 46.5415 15.5959C45.8704 14.8289 45.4869 13.8381 45.3271 12.8155C44.9755 10.6103 45.391 8.08556 47.2126 6.61545C48.8106 5.3371 51.3673 5.08143 53.2528 5.84844C55.5539 6.77525 55.9374 9.39586 55.9374 11.5691L49.8332 11.5691C49.5456 11.5371 49.258 11.5371 48.9704 11.5371ZM48.9064 10.9938C49.5456 10.9618 50.1848 10.9299 50.8559 10.866C51.2394 10.834 51.6549 10.834 52.0384 10.802C52.1023 10.802 52.2621 10.8021 52.326 10.7701C52.4219 10.7062 52.358 10.067 52.358 9.93916C52.326 8.78865 52.2941 7.38246 51.6229 6.39174C51.1436 5.68865 50.4085 5.81648 49.9611 6.45566C49.0343 7.70205 48.9064 9.55566 48.9064 10.9938ZM0.520874 22.6588C0.520874 20.8691 0.87242 19.0155 1.86314 17.5134C2.8219 16.0433 4.35593 15.0845 6.01778 14.6051C8.03118 14.0299 10.2683 14.0938 12.3456 14.4773C12.793 14.5732 13.2405 14.6691 13.6559 14.7969C13.7198 14.8289 14.0075 14.8928 14.0394 14.9567V15.0526C14.1353 15.4361 14.0714 15.9155 14.0714 16.299C14.1033 17.2897 14.1033 18.3124 14.1353 19.3031C14.0075 19.3031 13.7838 19.335 13.6879 19.3031C13.624 19.2711 13.56 19.1113 13.5281 19.0474C13.2724 18.6639 13.0167 18.2804 12.793 17.8649C12.2497 17.0021 11.6745 16.1392 11.1312 15.2763C10.8436 14.7969 10.0446 14.7969 9.53325 14.7969C8.95799 14.7969 8.38273 14.8928 7.90335 15.1804C6.81675 15.8515 6.30541 17.1618 6.01778 18.3443C5.57036 20.2299 5.60232 22.2113 5.69819 24.1289C5.79407 25.599 5.92191 27.1649 6.49716 28.5072C6.84871 29.3381 7.45593 30.0732 8.38273 30.2649C8.67036 30.3289 8.95799 30.3289 9.27757 30.2969C9.46933 30.2649 10.1405 30.233 10.2363 30.0412C10.2683 29.9773 10.2363 29.8175 10.2363 29.7536V29.2103L10.2363 25.8227V24.5124C10.2363 24.2886 10.3003 24.1928 10.1085 24.0649C9.88479 23.9371 9.62912 23.8093 9.40541 23.6495C9.24562 23.5536 8.92603 23.4577 8.83015 23.3299C8.76623 23.266 8.73428 22.9144 8.79819 22.8505C8.83015 22.7866 8.83015 22.8185 8.92603 22.8185C9.21366 22.7546 9.59716 22.8185 9.88479 22.8185L14.8384 22.8185C15.158 22.8185 15.5095 22.7866 15.8291 22.8185H15.957C15.9889 22.8505 15.9889 23.2979 15.957 23.3618C15.893 23.4577 15.5735 23.5856 15.4456 23.6495C15.2219 23.7773 14.9662 23.9051 14.7425 24.0649C14.4869 24.1928 14.5188 24.1928 14.5188 24.4804L14.5188 29.6897C14.5188 29.7536 14.5508 29.9134 14.5188 29.9773C14.4549 30.1371 13.7838 30.233 13.592 30.2969C13.0487 30.4567 12.4735 30.5845 11.8982 30.6804C10.7796 30.8722 9.66108 30.9361 8.54252 30.9041C6.75283 30.8402 4.86727 30.4567 3.39716 29.3701C2.11881 28.4433 1.28788 27.0371 0.904379 25.5031C0.61675 24.6082 0.520874 23.6175 0.520874 22.6588ZM15.2539 19.7505C15.2539 19.6866 15.2219 19.4309 15.2539 19.399C15.2858 19.367 15.3178 19.399 15.3497 19.367C15.5415 19.2711 15.7972 19.2711 16.0209 19.2392C16.7559 19.1113 17.491 18.9835 18.258 18.8557C18.8332 18.7598 19.4085 18.6319 19.9518 18.568C20.1116 18.5361 20.3033 18.5361 20.4631 18.6C20.6229 18.6319 20.559 18.6 20.591 18.7278C20.6549 19.1113 20.591 19.5588 20.591 19.9423V26.6216C20.591 27.4206 20.3673 28.8907 21.1343 29.3701C21.5178 29.6258 22.0611 29.6258 22.5085 29.5299C22.86 29.466 23.5312 29.2103 23.659 28.8268C23.691 28.7309 23.659 28.6031 23.659 28.5072V27.8361V23.3938V21.3484V20.6773C23.659 20.6134 23.691 20.4216 23.659 20.3577C23.5631 20.2618 23.2436 20.166 23.1477 20.134C22.9559 20.0701 22.7961 19.9742 22.6044 19.9103C22.5405 19.8783 22.3167 19.8464 22.2848 19.7825C22.2528 19.7505 22.2528 19.4629 22.2848 19.4309C22.3167 19.399 22.3167 19.4309 22.3487 19.399C22.5085 19.3031 22.7961 19.335 22.9559 19.3031C24.2662 19.0794 25.6085 18.7917 26.9508 18.6C27.1106 18.568 27.2704 18.568 27.4302 18.6C27.5899 18.6319 27.526 18.568 27.558 18.7278C27.6219 19.0474 27.558 19.4948 27.558 19.8464V29.0505C27.558 29.1464 27.526 29.3062 27.558 29.434C27.5899 29.5299 27.558 29.4979 27.7178 29.5618C28.0374 29.6897 28.3889 29.8495 28.7085 29.9773C28.8044 30.0093 28.8363 30.0093 28.8683 30.0732C28.9003 30.1371 28.9003 30.3608 28.8683 30.3608C28.8044 30.4247 28.4848 30.3928 28.4209 30.4247C27.7178 30.5206 27.0147 30.5845 26.2796 30.6804C25.6405 30.7443 25.0013 30.8402 24.3941 30.9041C24.2662 30.9361 24.1384 30.9361 24.0106 30.9041C23.9466 30.9041 23.7549 30.9041 23.7229 30.8722C23.691 30.8082 23.7229 30.5526 23.7229 30.4886V29.9453C23.7229 29.8495 23.7869 29.5938 23.7229 29.4979C23.659 29.4021 23.5312 29.5299 23.4353 29.5938C23.1796 29.8175 22.892 30.0412 22.6044 30.201C21.5497 30.8402 20.2394 31.1278 19.025 30.8722C18.1302 30.6804 17.3631 30.1691 16.9796 29.3062C16.692 28.699 16.6281 28.0278 16.6281 27.3886V23.5856V21.4124V20.6773C16.6281 20.6134 16.66 20.4216 16.6281 20.3577C16.5642 20.2618 16.1807 20.166 16.0848 20.1021C15.7652 19.9742 15.5095 19.8783 15.2539 19.7505ZM45.391 18.5361C45.4549 18.5361 45.7425 18.5361 45.7745 18.6C45.8064 18.6319 45.7745 18.8557 45.7745 18.8876V21.7C45.7745 21.7959 45.7425 21.9557 45.7745 22.0515L45.7745 22.1155C45.9023 22.2433 45.9343 21.8278 45.9662 21.7959C46.2539 20.6134 46.7972 19.2392 48.0116 18.7598C48.2353 18.6639 48.459 18.6319 48.6827 18.6C48.8745 18.6 49.4178 18.5361 49.5137 18.6959C49.5456 18.7598 49.5137 18.9196 49.5137 18.9835L49.5137 22.2433C48.7466 22.0835 47.8838 22.1155 47.1487 22.2752C46.7972 22.3392 46.4776 22.435 46.158 22.5948C45.9982 22.6588 45.9662 22.6268 45.9343 22.7546C45.9023 22.8825 45.9343 23.1062 45.9343 23.234V29.4021C45.9343 29.466 45.9023 29.5618 45.9343 29.6258C45.9982 29.7216 46.2219 29.7856 46.3178 29.8175C46.4776 29.9134 46.6693 30.0093 46.8291 30.1051C46.893 30.1371 46.9889 30.1691 47.0209 30.233C47.0528 30.2649 47.0528 30.6484 47.0209 30.6804C46.9889 30.7124 46.7972 30.6804 46.7332 30.6804H41.4281C41.2683 30.6804 40.9807 30.7443 40.8528 30.6804H40.757C40.725 30.6484 40.757 30.2969 40.757 30.2649C40.8209 30.0732 41.2363 29.9454 41.4281 29.8495C41.5559 29.7856 41.8116 29.6897 41.8755 29.5618C41.9075 29.4979 41.8755 29.3062 41.8755 29.2423V28.5711L41.8755 20.3577C41.8755 20.3258 41.9075 20.166 41.8755 20.134C41.8436 20.1021 41.6838 20.0701 41.6198 20.0701C41.4281 20.0062 41.2363 19.9423 41.0446 19.9103C40.8528 19.8464 40.3734 19.8144 40.5332 19.4948C40.5652 19.399 40.693 19.4309 40.8209 19.399C42.2271 19.1433 43.6013 18.8876 45.0075 18.6319C45.1353 18.568 45.2631 18.568 45.391 18.5361ZM57.4394 18.8237V16.267V15.5319C57.4394 15.4361 57.4714 15.2443 57.4394 15.1484C57.4075 15.0845 57.2796 15.0526 57.1838 15.0206C56.9281 14.9247 56.6724 14.8289 56.3848 14.733C56.193 14.6691 56.0972 14.701 56.0972 14.4773C56.0972 14.2856 56.0652 14.3495 56.225 14.3175C56.5765 14.1897 56.992 14.1897 57.3436 14.1258C58.3982 13.934 59.4209 13.7423 60.4755 13.5505C60.6992 13.5185 60.9229 13.4546 61.1466 13.4866C61.4023 13.5185 61.4343 13.4546 61.4343 13.6783C61.4662 14.1897 61.4343 14.733 61.4343 15.2443L61.4343 29.2423C61.4343 29.3701 61.4023 29.3701 61.4982 29.434C61.6899 29.5618 62.0095 29.6258 62.2013 29.6897C62.3291 29.7216 62.6807 29.7856 62.7446 29.8814C62.7765 29.9134 62.7765 30.2649 62.7446 30.2969C62.7126 30.3289 62.5209 30.3289 62.4889 30.3289C62.0415 30.3928 61.626 30.4567 61.1786 30.4886C60.1879 30.6165 59.1972 30.7443 58.1745 30.8722C58.0147 30.9041 57.6312 30.968 57.5673 30.8402C57.5033 30.7124 57.5673 30.2969 57.5673 30.1691C57.5673 30.0732 57.6312 29.6577 57.5673 29.5938C57.5033 29.5299 56.8003 30.1691 56.7044 30.233C56.3209 30.4886 55.9054 30.6804 55.458 30.8082C54.7549 31 53.9559 31 53.2528 30.8402C50.1848 30.1371 49.5456 26.4938 49.8013 23.8412C49.9291 22.435 50.3765 21.0289 51.3353 20.0062C52.2302 19.0794 53.4446 18.6 54.691 18.5041C55.6497 18.4082 56.5765 18.4722 57.4394 18.8237ZM57.4394 29.0185L57.4394 21.1567V19.6866C57.4394 19.4948 57.4075 19.4629 57.1838 19.335C56.7363 19.0794 56.1611 18.9835 55.6817 19.1752C54.9466 19.4629 54.5951 20.3258 54.4033 21.0289C54.0198 22.3072 53.9879 23.6814 54.0198 25.0237C54.0518 26.1742 54.0838 27.5804 54.7229 28.6031C55.2982 29.4979 56.6085 29.7216 57.4394 29.0185ZM68.0178 18.5361C68.1776 18.568 68.3693 18.5041 68.4332 18.6639C68.4652 18.7598 68.4332 18.9835 68.4332 19.0794V29.0825C68.4332 29.2103 68.4013 29.4021 68.4332 29.5299C68.4652 29.6577 68.593 29.6897 68.7209 29.7536C68.9126 29.8495 69.0724 29.9454 69.2642 30.0412C69.3281 30.0732 69.5198 30.1371 69.5518 30.233C69.5518 30.2649 69.5838 30.6484 69.5518 30.6804H69.4559C69.2642 30.7124 69.0085 30.6804 68.7848 30.6804H63.9271C63.7992 30.6804 63.4477 30.7443 63.3518 30.6804C63.2879 30.6484 63.2559 30.2649 63.3198 30.201C63.3838 30.1051 63.6075 30.0412 63.7034 30.0093C63.8951 29.9134 64.0869 29.7856 64.2786 29.6897C64.4384 29.5938 64.4064 29.6258 64.4064 29.4979C64.4704 29.0185 64.4064 28.4752 64.4064 27.9959V25.4711V20.8691C64.4064 20.7412 64.4384 20.5175 64.4064 20.3897C64.3745 20.2618 64.2147 20.2618 64.0869 20.1979C63.8631 20.1021 63.6714 20.0381 63.4477 19.9423C63.3838 19.9103 63.1281 19.8783 63.0642 19.7825C63.0322 19.7505 63.0322 19.4309 63.0642 19.399C63.0961 19.367 63.16 19.399 63.192 19.367C63.4477 19.2711 63.7353 19.2711 64.0229 19.2072C64.4384 19.1433 64.8219 19.0474 65.2374 18.9835C66.0363 18.8557 66.8034 18.6959 67.6023 18.568C67.7621 18.6 67.8899 18.568 68.0178 18.5361ZM68.4652 15.5639C68.4013 17.4814 65.8126 18.3124 64.6301 16.8103C64.0869 16.1072 64.0549 15.1484 64.5343 14.4134C65.0137 13.6783 65.9405 13.3588 66.8034 13.5505C67.7621 13.7423 68.4652 14.5732 68.4652 15.5639ZM82.4631 29.5938V21.8917V20.4216C82.4631 20.3897 82.4951 20.2299 82.4631 20.1979C82.4312 20.134 82.2394 20.1021 82.1755 20.1021L81.6003 19.9103C81.5044 19.8783 81.2487 19.8464 81.1848 19.7505C81.1209 19.6866 81.1528 19.5268 81.1528 19.4309C81.1528 19.2392 81.2168 19.2711 81.4085 19.2392L83.5178 18.8557L85.6271 18.4722C85.7549 18.4402 85.8508 18.4082 85.9786 18.4082C86.0425 18.4082 86.3621 18.4082 86.426 18.4402C86.458 18.4722 86.426 18.6639 86.426 18.7278V19.335C86.426 19.4309 86.3621 19.7185 86.426 19.8144C86.49 19.9423 86.6178 19.8144 86.7137 19.7185C87.0013 19.4948 87.2889 19.3031 87.6085 19.1433C88.759 18.5041 90.1332 18.2165 91.4436 18.4082C92.3384 18.5361 93.0734 19.0155 93.393 19.8783C93.6168 20.4856 93.6487 21.1247 93.6487 21.7639V29.0505C93.6487 29.1783 93.6167 29.4021 93.6487 29.5299C93.6807 29.6577 93.7766 29.6897 93.9363 29.7536C94.0961 29.8495 94.2879 29.9454 94.4477 30.0412C94.5116 30.0732 94.7353 30.1371 94.7673 30.233C94.7992 30.2969 94.7992 30.6165 94.7673 30.6484C94.7353 30.7124 94.7992 30.6484 94.7033 30.6804C94.5755 30.7443 94.2879 30.6804 94.1281 30.6804H89.558C89.3662 30.6804 88.6312 30.7763 88.5353 30.6484C88.5033 30.6165 88.5033 30.2649 88.5353 30.201C88.5673 30.1371 88.759 30.0732 88.8229 30.0412C89.0147 29.9454 89.1745 29.8495 89.3662 29.7536C89.4302 29.7216 89.6219 29.6577 89.6539 29.5938C89.6858 29.5299 89.6539 29.4021 89.6539 29.3381V28.635V26.3979V22.0835C89.6539 21.5722 89.6858 20.9969 89.3662 20.5495C89.1106 20.166 88.6631 20.0701 88.2157 20.0381C87.8642 20.0381 87.5446 20.0701 87.225 20.166C87.0652 20.2299 86.5858 20.3577 86.4899 20.5495C86.458 20.6134 86.4899 20.7412 86.4899 20.8051V29.0825C86.4899 29.1783 86.458 29.4021 86.4899 29.4979C86.5219 29.6258 86.7137 29.6577 86.8095 29.7216C86.9693 29.8175 87.1611 29.9134 87.3209 30.0093C87.3848 30.0412 87.5126 30.1051 87.5446 30.1371C87.5765 30.1691 87.5765 30.5526 87.5446 30.5845C87.5446 30.6165 87.5126 30.5845 87.4807 30.5845C87.3528 30.6484 87.0332 30.5845 86.9054 30.5845H81.5363C81.3765 30.5845 81.3446 30.6165 81.3126 30.5206C81.2807 30.4567 81.2807 30.1691 81.3126 30.1051C81.3446 30.0412 81.5363 29.9773 81.6003 29.9453C81.9198 29.9134 82.1755 29.7536 82.4631 29.5938ZM75.6879 23.7134C75.6879 22.8825 75.7198 22.0196 75.6559 21.1567C75.5601 20.2299 75.3044 19.2072 74.2497 19.0155C73.9302 18.9515 73.3549 18.8557 73.1312 19.1113C72.9075 19.335 72.7477 19.6546 72.5559 19.9103L70.926 22.1155C70.8302 22.2433 70.7343 22.499 70.6064 22.5629C70.5745 22.5948 70.2549 22.5948 70.2549 22.5629C70.2229 22.5309 70.2549 22.3072 70.2549 22.2433V19.6546C70.2549 19.5588 70.2229 19.399 70.2549 19.3031C70.3188 19.1433 71.0219 19.0474 71.1817 18.9835C72.0765 18.7598 73.0033 18.6 73.9302 18.5361C75.2405 18.4402 76.7106 18.4722 77.925 19.0474C78.8838 19.4948 79.491 20.2938 79.6508 21.3165C79.7466 21.8278 79.7147 22.4031 79.7147 22.9144V29.3062C79.7147 29.4021 79.6508 29.6577 79.7147 29.7216C79.7466 29.7536 79.9064 29.7856 79.9384 29.7856C80.1941 29.8495 80.4178 29.9134 80.6734 29.9773C80.8332 30.0093 80.8652 30.0093 80.8652 30.1691C80.8652 30.3289 80.8972 30.3289 80.7054 30.3928C80.4817 30.4886 80.258 30.5845 80.0343 30.6484C78.8518 31 76.9982 31.0959 76.1353 30.0093C76.0714 29.9134 75.8796 29.4979 75.7838 29.466C75.6559 29.434 75.2724 29.9454 75.1446 30.0412C74.6332 30.4886 73.9621 30.7443 73.291 30.8402C72.0446 31 70.7023 30.7443 69.9353 29.6577C69.2961 28.7309 69.1683 27.2928 69.6477 26.2701C70.5106 24.3206 73.0673 24.1289 74.9209 23.8093C75.1446 23.8093 75.4003 23.7453 75.6879 23.7134ZM75.6879 29.0185V24.2886C74.7291 24.3526 73.7384 24.4165 73.3868 25.4711C73.1312 26.1742 73.1312 27.0051 73.2271 27.7402C73.291 28.2515 73.4188 28.8907 73.8982 29.2103C74.4095 29.5618 75.2724 29.4979 75.6879 29.0185ZM35.2281 23.7134C35.2281 22.8825 35.26 22.0196 35.1961 21.1567C35.1003 20.2299 34.8446 19.2072 33.7899 19.0155C33.4704 18.9515 32.8951 18.8557 32.6714 19.1113C32.4477 19.335 32.2879 19.6546 32.0961 19.9103L30.4662 22.1155C30.3704 22.2433 30.2745 22.499 30.1466 22.5629C30.1147 22.5948 29.7951 22.5948 29.7951 22.5629C29.7631 22.5309 29.7951 22.3072 29.7951 22.2433V19.6866C29.7951 19.5907 29.7631 19.4309 29.7951 19.335C29.859 19.1752 30.5302 19.0794 30.7219 19.0155C31.6167 18.7917 32.5436 18.6319 33.4384 18.568C34.7487 18.4722 36.2188 18.5041 37.4332 19.0794C38.392 19.5268 38.9992 20.3258 39.159 21.3484C39.2549 21.8598 39.2229 22.435 39.2229 22.9464V29.3381C39.2229 29.434 39.159 29.6897 39.2229 29.7536C39.2549 29.7856 39.4147 29.8175 39.4466 29.8175C39.7023 29.8814 39.926 29.9454 40.1817 30.0093C40.3415 30.0412 40.3734 30.0412 40.3734 30.201C40.3734 30.3608 40.4054 30.3608 40.2137 30.4247C39.9899 30.5206 39.7662 30.6165 39.5425 30.6804C38.36 31.0319 36.5064 31.1278 35.6436 30.0412C35.5796 29.9454 35.3879 29.5299 35.292 29.4979C35.1642 29.466 34.7807 29.9773 34.6848 30.0732C34.1735 30.5206 33.5023 30.7763 32.8312 30.8722C31.5848 31.0319 30.2425 30.7763 29.4755 29.6897C28.8363 28.7629 28.7085 27.3247 29.1879 26.3021C30.0508 24.3526 32.6075 24.1608 34.4291 23.8412C34.6848 23.8093 34.9405 23.7453 35.2281 23.7134ZM35.2281 29.0185V24.2886C34.2693 24.3526 33.2786 24.4165 32.9271 25.4711C32.6714 26.1742 32.6714 27.0051 32.7673 27.7402C32.8312 28.2515 32.959 28.8907 33.4384 29.2103C33.9497 29.5618 34.8126 29.4979 35.2281 29.0185Z" fill="black"/>
</g>
</svg>
