<svg width="96" height="25" viewBox="0 0 96 25" fill="none" xmlns="http://www.w3.org/2000/svg">
<g id="tnw-logo" clip-path="url(#clip0_1_27)">
<path id="Vector" d="M49.6458 24.0256H41.0016L41.0016 16.534C41.0016 15.5255 40.5694 14.6611 39.9931 13.9407L36.6795 10.6271C35.9591 10.0508 35.0947 9.6186 34.0862 9.6186H32.3574V24.0256H23.7131L23.7131 0.974365L36.2473 0.974365C38.1202 0.974365 39.9931 1.69472 41.2898 3.13542L47.4848 9.33046C48.9255 10.6271 49.6458 12.5 49.6458 14.3729L49.6458 24.0256ZM87.1042 0.974365V8.46603C87.1042 9.47453 86.672 10.3389 86.0957 11.0593L82.7821 14.3729C82.0617 15.0933 81.1973 15.3814 80.1888 15.3814H76.587C77.7396 14.0848 78.4599 12.3559 78.4599 10.6271V0.974365L69.8157 0.974365V8.46603C69.8157 9.47453 69.3835 10.3389 68.8072 11.0593L65.4936 14.3729C64.7732 15.0933 63.9088 15.3814 62.9003 15.3814L61.1715 15.3814V0.974365L52.5273 0.974365L52.5273 24.0256L65.0614 24.0256C66.9343 24.0256 68.8072 23.3053 70.1039 21.8646L74.1378 17.8306V24.0256L82.3499 24.0256C84.2228 24.0256 86.0957 23.3053 87.3923 21.8646L93.5873 15.6696C95.0281 14.3729 95.7484 12.5 95.7484 10.6271V0.974365L87.1042 0.974365ZM20.8317 0.974365L0.661865 0.974365L0.661865 9.6186L6.42469 9.6186L6.42469 24.0256L15.0689 24.0256L15.0689 9.6186L20.8317 9.6186" fill="black"/>
</g>
<defs>
<clipPath id="clip0_1_27">
<rect width="95.3846" height="23.0513" fill="white" transform="translate(0.512695 0.974365)"/>
</clipPath>
</defs>
</svg>
